<svg viewBox="0 0 181 42" xmlns="http://www.w3.org/2000/svg" data-logo="logo">
        <g style="opacity: 1;" transform="translate(0, 1) rotate(0)" id="logogram"><path fill="#0024D6" d="M17 0C17.5523 0 18 0.447715 18 1V8.39648C18 8.61918 18.2693 8.7307 18.4268 8.57324L26.4141 0.585938C26.7891 0.210936 27.2978 7.97938e-05 27.8281 0H36.5859C36.8511 4.04019e-05 37.1055 0.105468 37.293 0.292969L40.293 3.29297C40.6834 3.68347 40.6834 4.31653 40.293 4.70703L36.4268 8.57324C36.2693 8.73073 36.3808 8.99997 36.6035 9H44.5859C44.8511 9.00004 45.1055 9.10547 45.293 9.29297L48.293 12.293C48.6834 12.6835 48.6834 13.3165 48.293 13.707L44.3535 17.6465C44.1583 17.8417 44.1583 18.1583 44.3535 18.3535L47.5859 21.5859C48.4914 22.4914 49 23.7195 49 25C49 26.2805 48.4913 27.5086 47.5859 28.4141L36.5859 39.4141C36.2109 39.7891 35.7022 39.9999 35.1719 40H32C31.4477 40 31 39.5523 31 39V31.6035C31 31.3808 30.7307 31.2693 30.5732 31.4268L22.5859 39.4141C22.2109 39.7891 21.7022 39.9999 21.1719 40H12.4141C12.1489 40 11.8945 39.8945 11.707 39.707L8.70703 36.707C8.31661 36.3165 8.31661 35.6835 8.70703 35.293L12.5732 31.4268C12.7307 31.2693 12.6192 31 12.3965 31H4.41406C4.1489 31 3.89453 30.8945 3.70703 30.707L0.707031 27.707C0.316606 27.3165 0.316607 26.6835 0.707031 26.293L4.64648 22.3535C4.8417 22.1583 4.8417 21.8417 4.64648 21.6465L1.41406 18.4141C0.508652 17.5086 0 16.2805 0 15C0 13.7195 0.508651 12.4914 1.41406 11.5859L12.4141 0.585938C12.7891 0.210936 13.2978 8.00463e-05 13.8281 0H17ZM20.0713 9C18.7452 9 17.4728 9.52716 16.5352 10.4648L5.85352 21.1465C5.53861 21.4615 5.76165 21.9999 6.20703 22H20.793C21.2383 22.0001 21.4613 22.5386 21.1465 22.8535L13.8535 30.1465C13.5386 30.4615 13.7616 30.9999 14.207 31H28.9287C30.2548 31 31.5272 30.4728 32.4648 29.5352L43.1465 18.8535C43.4417 18.5583 43.2642 18.0663 42.874 18.0059L42.793 18H28.207C27.7616 18 27.5386 17.4615 27.8535 17.1465L35.1465 9.85352C35.4614 9.53855 35.2384 9.00006 34.793 9H20.0713Z" clip-rule="evenodd" fill-rule="evenodd"></path></g>
        <g style="opacity: 1;" transform="translate(55, 8)" id="logotype"><path d="M26.13 26L8.12 26L8.12 22.24L17.14 13.78Q18.30 12.65 19.10 11.74Q19.89 10.82 20.31 9.94Q20.73 9.06 20.73 8.04L20.73 8.04Q20.73 6.89 20.22 6.07Q19.71 5.25 18.82 4.81Q17.93 4.36 16.78 4.36L16.78 4.36Q15.60 4.36 14.72 4.84Q13.83 5.32 13.35 6.21Q12.87 7.10 12.87 8.35L12.87 8.35L7.88 8.35Q7.88 5.87 9.02 4.03Q10.15 2.19 12.17 1.19Q14.19 0.19 16.82 0.19L16.82 0.19Q19.52 0.19 21.53 1.16Q23.55 2.13 24.67 3.82Q25.79 5.51 25.79 7.71L25.79 7.71Q25.79 9.13 25.23 10.52Q24.68 11.90 23.25 13.62Q21.83 15.34 19.21 17.73L19.21 17.73L15.37 21.52L15.37 21.71L26.13 21.71L26.13 26ZM37.14 26.34L37.14 26.34Q34.28 26.34 32.08 25.40Q29.87 24.46 28.62 22.84Q27.36 21.21 27.36 19.16L27.36 19.16Q27.36 17.57 28.09 16.23Q28.81 14.89 30.05 13.99Q31.29 13.10 32.85 12.84L32.85 12.84L32.85 12.69Q30.81 12.26 29.55 10.69Q28.28 9.12 28.28 7.03L28.28 7.03Q28.28 5.06 29.43 3.52Q30.57 1.97 32.57 1.08Q34.57 0.19 37.14 0.19L37.14 0.19Q39.68 0.19 41.69 1.08Q43.70 1.97 44.85 3.52Q46.01 5.06 46.01 7.03L46.01 7.03Q46.01 9.12 44.72 10.69Q43.44 12.26 41.46 12.69L41.46 12.69L41.46 12.84Q42.98 13.10 44.22 13.99Q45.46 14.89 46.19 16.23Q46.93 17.57 46.93 19.16L46.93 19.16Q46.93 21.21 45.67 22.84Q44.42 24.46 42.20 25.40Q39.99 26.34 37.14 26.34ZM37.14 22.48L37.14 22.48Q38.45 22.48 39.43 22.01Q40.40 21.54 40.95 20.69Q41.49 19.85 41.49 18.75L41.49 18.75Q41.49 17.63 40.93 16.76Q40.37 15.90 39.38 15.40Q38.40 14.89 37.14 14.89L37.14 14.89Q35.87 14.89 34.89 15.39Q33.91 15.88 33.34 16.75Q32.78 17.61 32.78 18.75L32.78 18.75Q32.78 19.85 33.32 20.69Q33.85 21.52 34.85 22.00Q35.84 22.48 37.14 22.48ZM37.14 11.06L37.14 11.06Q38.23 11.06 39.08 10.62Q39.92 10.17 40.41 9.39Q40.90 8.60 40.90 7.59L40.90 7.59Q40.90 6.57 40.42 5.80Q39.94 5.03 39.09 4.60Q38.25 4.18 37.14 4.18L37.14 4.18Q36.02 4.18 35.18 4.60Q34.33 5.03 33.85 5.80Q33.38 6.57 33.38 7.59L33.38 7.59Q33.38 8.60 33.85 9.39Q34.33 10.17 35.19 10.62Q36.04 11.06 37.14 11.06ZM57.50 26L57.50 26L50.93 26L50.93 21.51L57.27 21.51Q59.73 21.51 61.39 20.63Q63.06 19.76 63.90 17.93Q64.73 16.10 64.73 13.25L64.73 13.25Q64.73 10.41 63.89 8.59Q63.04 6.77 61.39 5.90Q59.74 5.03 57.30 5.03L57.30 5.03L50.81 5.03L50.81 0.54L57.61 0.54Q61.44 0.54 64.20 2.07Q66.96 3.60 68.44 6.44Q69.93 9.29 69.93 13.25L69.93 13.25Q69.93 17.23 68.44 20.09Q66.96 22.94 64.17 24.47Q61.38 26 57.50 26ZM48.57 0.54L53.78 0.54L53.78 26L48.57 26L48.57 0.54ZM80.08 26.38L80.08 26.38Q77.16 26.38 75.04 25.18Q72.92 23.98 71.78 21.78Q70.64 19.57 70.64 16.55L70.64 16.55Q70.64 13.59 71.77 11.37Q72.90 9.15 74.97 7.90Q77.04 6.65 79.82 6.65L79.82 6.65Q81.70 6.65 83.33 7.25Q84.95 7.85 86.18 9.06Q87.41 10.26 88.10 12.07Q88.79 13.88 88.79 16.34L88.79 16.34L88.79 17.78L72.75 17.78L72.75 14.57L86.28 14.57L83.89 15.42Q83.89 13.93 83.44 12.83Q82.98 11.73 82.09 11.12Q81.19 10.52 79.86 10.52L79.86 10.52Q78.54 10.52 77.61 11.13Q76.68 11.75 76.20 12.80Q75.72 13.85 75.72 15.20L75.72 15.20L75.72 17.47Q75.72 19.13 76.28 20.26Q76.83 21.39 77.83 21.95Q78.83 22.51 80.16 22.51L80.16 22.51Q81.07 22.51 81.80 22.26Q82.54 22.00 83.06 21.50Q83.58 20.99 83.86 20.26L83.86 20.26L88.50 21.13Q88.04 22.70 86.90 23.89Q85.75 25.08 84.03 25.73Q82.32 26.38 80.08 26.38ZM101.23 26L95.41 26L88.36 6.89L93.82 6.89L97.03 16.81Q97.61 18.67 98.05 20.57Q98.48 22.46 98.94 24.50L98.94 24.50L97.85 24.50Q98.29 22.46 98.72 20.57Q99.15 18.67 99.73 16.81L99.73 16.81L102.91 6.89L108.29 6.89L101.23 26ZM116.32 26.38L116.32 26.38Q114.01 26.38 112.24 25.72Q110.46 25.06 109.33 23.80Q108.20 22.55 107.88 20.77L107.88 20.77L112.65 19.95Q113.02 21.28 113.96 21.95Q114.90 22.62 116.48 22.62L116.48 22.62Q117.93 22.62 118.78 22.06Q119.64 21.51 119.64 20.65L119.64 20.65Q119.64 19.90 119.03 19.42Q118.42 18.94 117.18 18.69L117.18 18.69L113.88 18.00Q111.11 17.44 109.74 16.08Q108.37 14.72 108.37 12.58L108.37 12.58Q108.37 10.74 109.38 9.41Q110.39 8.09 112.19 7.37Q113.98 6.65 116.41 6.65L116.41 6.65Q118.66 6.65 120.32 7.28Q121.98 7.90 123.00 9.05Q124.03 10.19 124.37 11.75L124.37 11.75L119.83 12.55Q119.53 11.58 118.71 10.95Q117.88 10.33 116.48 10.33L116.48 10.33Q115.21 10.33 114.36 10.86Q113.50 11.39 113.50 12.26L113.50 12.26Q113.50 12.99 114.06 13.49Q114.61 13.99 115.96 14.26L115.96 14.26L119.40 14.94Q122.17 15.51 123.52 16.78Q124.87 18.05 124.87 20.10L124.87 20.10Q124.87 21.98 123.77 23.39Q122.68 24.80 120.76 25.59Q118.83 26.38 116.32 26.38Z" fill="#000000"></path></g>
        
      </svg>